<svg width="197" height="162" viewBox="0 0 197 162" fill="none" xmlns="http://www.w3.org/2000/svg">
<path d="M60.2211 122.5C60.0211 122.5 59.8211 122.4 59.7211 122.2L34.2211 60.2C34.1211 59.9 34.2211 59.6 34.5211 59.5C34.8211 59.4 35.1211 59.5 35.2211 59.8L60.7211 121.8C60.8211 122.1 60.7211 122.4 60.4211 122.5C60.4211 122.4 60.3211 122.5 60.2211 122.5Z" fill="#925DC3"/>
<path d="M45.2213 83.2C42.5213 83.6 39.7213 83.9 37.2213 85C34.7213 86 32.3213 87.8 31.2213 90.3C30.4213 92.1 30.3213 94.2 29.7213 96.1C29.6213 96.4 29.5213 96.7 29.4213 97C28.1213 100.6 24.8213 103.1 21.3213 104.4C17.7213 105.7 13.9213 105.9 10.1213 106.2L0.321289 82.8C4.12129 82.6 7.92129 82.3 11.5213 81C15.0213 79.7 18.3213 77.2 19.6213 73.6C20.1213 72.3 20.3213 70.9 20.6213 69.5C20.8213 68.6 21.0213 67.8 21.4213 66.9C22.5213 64.4 24.9213 62.6 27.4213 61.6C29.9213 60.6 32.7213 60.2 35.4213 59.8L45.2213 83.2Z" fill="#FF617C"/>
<path d="M45.2211 83.2C42.5211 83.6 39.7211 83.9 37.2211 85C34.7211 86 32.3211 87.8 31.2211 90.3C30.4211 92.1 30.3211 94.2 29.7211 96.1C26.7211 87.2 23.6211 78.4 20.6211 69.5C20.8211 68.6 21.0211 67.8 21.4211 66.9C22.5211 64.4 24.9211 62.6 27.4211 61.6C29.9211 60.6 32.7211 60.2 35.4211 59.8L45.2211 83.2Z" fill="#ED3968"/>
<path d="M136.021 122.5C135.921 122.5 135.921 122.5 135.821 122.5C135.521 122.4 135.421 122.1 135.521 121.8L161.021 59.8C161.121 59.5 161.421 59.4 161.721 59.5C162.021 59.6 162.121 59.9 162.021 60.2L136.521 122.2C136.521 122.3 136.321 122.5 136.021 122.5Z" fill="#925DC3"/>
<path d="M151.121 83.2C153.821 83.6 156.621 83.9 159.121 85C161.621 86 164.021 87.8 165.121 90.3C165.921 92.1 166.021 94.2 166.621 96.1C166.721 96.4 166.821 96.7 166.921 97C168.221 100.6 171.521 103.1 175.021 104.4C178.621 105.7 182.421 105.9 186.221 106.2L196.021 82.9C192.221 82.7 188.421 82.4 184.821 81.1C181.321 79.8 178.021 77.3 176.721 73.7C176.221 72.4 176.021 71 175.721 69.6C175.521 68.7 175.321 67.9 174.921 67C173.821 64.5 171.421 62.7 168.921 61.7C166.421 60.7 163.621 60.3 160.921 59.9L151.121 83.2Z" fill="#FF617C"/>
<path d="M151.121 83.2C153.821 83.6 156.621 83.9 159.121 85C161.621 86 164.021 87.8 165.121 90.3C165.921 92.1 166.021 94.2 166.621 96.1C169.621 87.2 172.721 78.4 175.721 69.5C175.521 68.6 175.321 67.8 174.921 66.9C173.821 64.4 171.421 62.6 168.921 61.6C166.421 60.6 163.621 60.2 160.921 59.8L151.121 83.2Z" fill="#ED3968"/>
<path d="M98.1213 0.5L117.121 38.9L159.521 45.1L128.821 75L136.021 117.2L98.1213 97.3L60.2213 117.2L67.5213 75L36.8213 45.1L79.2213 38.9L98.1213 0.5Z" fill="#FFC85E"/>
<path d="M98.1211 0.5V65L117.121 38.9L98.1211 0.5Z" fill="#FF8E3C"/>
<path d="M159.521 45.1L98.1211 65L128.821 75L159.521 45.1Z" fill="#FF8E3C"/>
<path d="M136.021 117.2L98.1211 65V97.3L136.021 117.2Z" fill="#FF8E3C"/>
<path d="M60.2217 117.2L98.1217 65L67.5217 75L60.2217 117.2Z" fill="#FF8E3C"/>
<path d="M36.8213 45.1L98.1213 65L79.2213 38.9L36.8213 45.1Z" fill="#FF8E3C"/>
<path d="M176.021 126.2C173.321 131.9 170.621 137.7 167.921 143.4C165.121 149.3 162.321 155.3 159.521 161.2C117.821 144.1 78.5213 144.1 36.8213 161.2C34.2213 155.6 31.5213 150 28.9213 144.4C26.0213 138.3 23.2213 132.2 20.3213 126.1C72.4213 104.2 123.921 104.2 176.021 126.2Z" fill="#FF617C"/>
<path d="M167.921 143.4C165.121 149.3 162.321 155.3 159.521 161.2C117.821 144.1 78.5209 144.1 36.8209 161.2C34.2209 155.6 31.5209 150 28.9209 144.4C72.4209 125.1 124.121 124.7 167.921 143.4Z" fill="#ED3968"/>
<path d="M62.6214 142C61.8214 142.5 60.3214 143.4 58.3214 143.9C56.1214 144.4 54.1214 144.3 52.4214 143.2C50.9214 142.3 49.6214 140.5 49.1214 138.2C48.1214 133.8 50.4214 129.9 55.3214 128.8C57.0214 128.4 58.4214 128.5 59.1214 128.6L59.0214 130.3C58.1214 130.1 57.1214 130.1 55.6214 130.4C52.0214 131.2 50.2214 134 51.1214 137.7C52.0214 141.4 54.7214 143.1 58.1214 142.3C59.3214 142 60.1214 141.6 60.5214 141.3L59.5214 136.9L56.5214 137.6L56.1214 136.1L60.9214 135L62.6214 142Z" fill="white"/>
<path d="M77.0216 132.6C77.8216 137.7 75.1216 140.9 71.3216 141.5C67.4216 142.1 64.1216 139.5 63.4216 135C62.7216 130.3 65.1216 126.7 69.1216 126.1C73.2216 125.5 76.3216 128.2 77.0216 132.6ZM65.5216 134.6C66.0216 137.8 68.1216 140.4 71.2216 139.9C74.3216 139.4 75.5216 136.4 75.0216 133C74.5216 130 72.5216 127.2 69.3216 127.7C66.1216 128.2 65.0216 131.3 65.5216 134.6Z" fill="white"/>
<path d="M92.7217 131.4C93.1217 136.6 90.1217 139.5 86.3217 139.8C82.3217 140.1 79.3217 137.2 79.0217 132.6C78.7217 127.8 81.4217 124.5 85.4217 124.2C89.5217 124 92.4217 127 92.7217 131.4ZM81.0217 132.5C81.2217 135.7 83.2217 138.5 86.2217 138.3C89.3217 138.1 90.8217 135.1 90.6217 131.7C90.4217 128.7 88.6217 125.7 85.4217 125.9C82.2217 126.1 80.8217 129.2 81.0217 132.5Z" fill="white"/>
<path d="M95.7209 124.2C96.9209 124 98.3209 123.9 99.8209 124C102.621 124 104.621 124.7 105.921 126C107.221 127.3 108.021 129 107.921 131.4C107.921 133.9 107.121 135.9 105.621 137.2C104.221 138.6 101.821 139.3 98.9209 139.2C97.5209 139.2 96.4209 139.1 95.4209 139L95.7209 124.2ZM97.4209 137.6C97.9209 137.7 98.6209 137.7 99.4209 137.7C103.621 137.8 105.921 135.5 105.921 131.4C106.021 127.8 104.021 125.6 99.9209 125.5C98.9209 125.5 98.1209 125.6 97.6209 125.7L97.4209 137.6Z" fill="white"/>
<path d="M119.421 125.3L121.321 125.5L120.221 135.5C119.821 139.5 117.721 140.5 115.121 140.2C114.421 140.1 113.521 139.9 113.121 139.6L113.621 138.1C114.021 138.3 114.521 138.5 115.221 138.6C116.921 138.8 118.021 138.1 118.421 135.2L119.421 125.3Z" fill="white"/>
<path d="M136.721 135.4C135.821 140.5 132.222 142.7 128.422 142C124.522 141.3 122.321 137.8 123.021 133.3C123.821 128.6 127.321 126 131.321 126.7C135.421 127.5 137.421 131 136.721 135.4ZM125.122 133.7C124.522 136.9 125.821 140 128.821 140.5C131.821 141 134.022 138.5 134.622 135.2C135.122 132.2 134.122 128.9 130.922 128.3C127.822 127.8 125.722 130.4 125.122 133.7Z" fill="white"/>
<path d="M141.121 129.1C142.021 129.1 143.321 129.3 144.621 129.6C146.521 130.1 147.621 130.7 148.421 131.7C149.021 132.5 149.321 133.4 149.021 134.6C148.721 136 147.421 137 145.721 137.2C147.021 137.9 148.321 139.4 147.821 141.6C147.521 142.9 146.821 143.7 145.821 144.2C144.521 144.9 142.821 144.9 140.421 144.3C139.121 144 138.121 143.6 137.521 143.4L141.121 129.1ZM139.821 142.6C140.221 142.8 140.721 142.9 141.421 143.1C143.421 143.6 145.321 143.3 145.921 141.2C146.421 139.2 144.921 138 142.821 137.4L141.221 137L139.821 142.6ZM141.521 135.6L143.221 136C145.221 136.5 146.621 135.7 147.021 134.3C147.421 132.6 146.321 131.6 144.421 131.1C143.521 130.9 143.021 130.8 142.721 130.8L141.521 135.6Z" fill="white"/>
</svg>
